<?xml version="1.0" encoding="UTF-8"?>
<svg width="390px" height="390px" viewBox="0 0 39 39" version="1.1" xmlns="http://www.w3.org/2000/svg" xmlns:xlink="http://www.w3.org/1999/xlink">
    <!-- Generator: Sketch 55.2 (78181) - https://sketchapp.com -->
    <title>1</title>
    <desc>Created with Sketch.</desc>
    <g id="1" stroke="none" stroke-width="1" fill="none" fill-rule="evenodd">
        <path d="M23.96,29.88 L23.96,31.92 L27.04,31.92 L27.04,29.88 L23.96,29.88 Z M15.68,14.04 L15.68,16.24 C18.44,14.24 20.64,11.6 22.28,8.4 L20.36,8.4 L20.36,11.12 L15.48,11.12 L15.48,7.48 L10.48,7.48 C10.16,9.68 9.76,11.88 9.28,14.04 L15.68,14.04 Z M10.84,28.32 L10.84,19 L8.64,19 L8.64,28.32 L10.84,28.32 Z M33.36,8.4 L28.28,8.4 C27.64,10 26.88,11.48 26.08,12.88 L28.32,12.88 C28.8,11.64 29.24,10.32 29.48,9.24 L33.36,10 L33.36,8.4 Z M27.04,19.52 L27.04,17.64 L23.96,17.64 L23.96,19.52 L27.04,19.52 Z M27.04,25.72 L27.04,23.68 L23.96,23.68 L23.96,25.72 L27.04,25.72 Z M38.68,31.92 L38.68,36.64 L23.96,36.64 L23.96,38.08 L18.52,38.08 L18.52,21.32 L18.4,21.4 C17.88,20.6 16.72,19.24 15.68,18.12 L15.68,33.28 L8.64,33.28 L8.64,36.36 L4,36.36 L4,27.76 C3.68,28.24 3.36,28.68 3.04,29.12 C2.52,27.76 1,24.8 0,23.48 C2.72,19.64 4.2,13.76 5,7.48 L1.48,7.48 L1.48,2.24 L16.08,2.24 L16.08,3.56 L24.2,3.56 C24.56,2.4 24.88,1.24 25.12,0 L30.64,1 C30.44,1.88 30.2,2.72 29.96,3.56 L38.48,3.56 L38.48,11.12 L34.4,11.12 C34.08,11.72 33.8,12.32 33.52,12.88 L37.84,12.88 L37.84,17.64 L32.36,17.64 L32.36,19.52 L36.84,19.52 L36.84,23.68 L32.36,23.68 L32.36,25.72 L36.84,25.72 L36.84,29.88 L32.36,29.88 L32.36,31.92 L38.68,31.92 Z" id="確" fill="#000000" fill-rule="nonzero"></path>
    </g>
</svg>
