<?xml version="1.0" encoding="UTF-8"?>
<svg width="390px" height="390px" viewBox="0 0 39 39" version="1.1" xmlns="http://www.w3.org/2000/svg" xmlns:xlink="http://www.w3.org/1999/xlink">
    <!-- Generator: Sketch 55.2 (78181) - https://sketchapp.com -->
    <title>2</title>
    <desc>Created with Sketch.</desc>
    <g id="2" stroke="none" stroke-width="1" fill="none" fill-rule="evenodd">
        <path d="M7.68,9.2 L7.68,14.52 L1.96,14.52 L1.96,3.72 L16.24,3.72 L16.24,0 L22.48,0 L22.48,3.72 L36.88,3.72 L36.88,14.52 L30.88,14.52 L30.88,9.2 L7.68,9.2 Z M22.44,26.96 L22.44,31.64 C23.56,31.76 24.72,31.8 25.92,31.8 C28.44,31.8 34.96,31.8 38.08,31.68 C37.24,33.04 36.32,35.84 36.04,37.6 L25.6,37.6 C18.64,37.6 13.4,36.48 9.8,31.32 C8.56,34.08 6.92,36.4 4.8,38.2 C3.84,37.16 1.36,35.08 0,34.2 C4.28,31.16 6.16,25.68 6.76,19 L12.84,19.6 C12.64,21.32 12.36,23 12,24.56 C13.04,27.2 14.52,28.88 16.36,29.96 L16.36,17.44 L8.6,17.44 L8.6,11.92 L30.04,11.92 L30.04,17.44 L22.44,17.44 L22.44,21.52 L32.92,21.52 L32.92,26.96 L22.44,26.96 Z" id="定" fill="#000000" fill-rule="nonzero"></path>
    </g>
</svg>
