<?xml version="1.0" encoding="UTF-8"?>
<svg width="390px" height="390px" viewBox="0 0 39 39" version="1.1" xmlns="http://www.w3.org/2000/svg" xmlns:xlink="http://www.w3.org/1999/xlink">
    <!-- Generator: Sketch 55.2 (78181) - https://sketchapp.com -->
    <title>3</title>
    <desc>Created with Sketch.</desc>
    <g id="3" stroke="none" stroke-width="1" fill="none" fill-rule="evenodd">
        <path d="M22.36,22.48 L30.04,22.48 L30.04,19.32 L22.36,19.32 L22.36,22.48 Z M8.8,22.48 L16.28,22.48 L16.28,19.32 L8.8,19.32 L8.8,22.48 Z M16.28,10.92 L8.8,10.92 L8.8,14 L16.28,14 L16.28,10.92 Z M30.04,10.92 L22.36,10.92 L22.36,14 L30.04,14 L30.04,10.92 Z M22.36,5.36 L36.12,5.36 L36.12,29.84 L30.04,29.84 L30.04,28.04 L22.36,28.04 L22.36,38 L16.28,38 L16.28,28.04 L8.8,28.04 L8.8,30.08 L3,30.08 L3,5.36 L16.28,5.36 L16.28,0 L22.36,0 L22.36,5.36 Z" id="申" fill="#000000" fill-rule="nonzero"></path>
    </g>
</svg>
