<?xml version="1.0" encoding="UTF-8"?>
<svg width="390x" height="390px" viewBox="0 0 39 39" version="1.1" xmlns="http://www.w3.org/2000/svg" xmlns:xlink="http://www.w3.org/1999/xlink">
    <!-- Generator: Sketch 55.2 (78181) - https://sketchapp.com -->
    <title>4</title>
    <desc>Created with Sketch.</desc>
    <g id="4" stroke="none" stroke-width="1" fill="none" fill-rule="evenodd">
        <path d="M27.48,26.8 L12.08,26.8 L12.08,30.92 L27.48,30.92 L27.48,26.8 Z M6.08,38.04 L6.08,21.48 L33.76,21.48 L33.76,37.88 L27.48,37.88 L27.48,36.28 L12.08,36.28 L12.08,38.04 L6.08,38.04 Z M17.44,10.2 L9.32,10.2 C8.44,11.56 7.56,12.8 6.68,13.84 L17.44,13.84 L17.44,10.2 Z M23.64,13.84 L37.2,13.84 L37.2,19.24 L1.72,19.24 L1.72,13.84 L5.76,13.84 C4.4,12.92 2.24,11.76 1,11.16 C3.88,8.6 6.36,4.24 7.68,0 L13.52,1.44 C13.12,2.6 12.68,3.76 12.16,4.92 L17.44,4.92 L17.44,0.04 L23.64,0.04 L23.64,4.92 L35,4.92 L35,10.2 L23.64,10.2 L23.64,13.84 Z" id="告" fill="#000000" fill-rule="nonzero"></path>
    </g>
</svg>
